<svg xmlns="http://www.w3.org/2000/svg" xmlns:xlink="http://www.w3.org/1999/xlink" width="500" zoomAndPan="magnify" viewBox="0 0 375 374.999991" height="500" preserveAspectRatio="xMidYMid meet" version="1.0"><defs><clipPath id="7547403be1"><path d="M 130.363281 112.5 L 244.363281 112.5 L 244.363281 262.5 L 130.363281 262.5 Z M 130.363281 112.5 " clip-rule="nonzero"/></clipPath></defs><g clip-path="url(#7547403be1)"><path fill="#ffffff" d="M 234.417969 172.128906 C 233.441406 171.578125 232.4375 171.136719 231.414062 170.777344 L 231.414062 134.730469 L 241.078125 134.730469 C 242.480469 134.730469 243.671875 133.542969 243.671875 132.136719 L 243.671875 115.09375 C 243.671875 114.300781 243.375 113.695312 242.925781 113.277344 C 242.511719 112.8125 241.894531 112.5 241.078125 112.5 L 133.910156 112.5 C 132.507812 112.5 131.3125 113.6875 131.3125 115.09375 L 131.3125 132.136719 C 131.3125 133.539062 132.503906 134.730469 133.910156 134.730469 L 143.574219 134.730469 L 143.574219 170.769531 C 143.320312 170.863281 143.070312 170.957031 142.820312 171.058594 C 135.429688 174.117188 130.449219 181.4375 130.449219 189.464844 C 130.449219 190.867188 131.636719 192.058594 133.042969 192.058594 L 141 192.058594 C 141.820312 205.429688 148.367188 217.699219 158.574219 225.886719 L 158.574219 259.917969 C 158.574219 261.320312 159.761719 262.511719 161.167969 262.511719 L 213.816406 262.511719 C 214.613281 262.511719 215.214844 262.214844 215.632812 261.765625 C 216.101562 261.351562 216.410156 260.734375 216.410156 259.917969 L 216.410156 225.96875 C 218.933594 223.984375 221.261719 221.734375 223.328125 219.21875 C 229.6875 211.484375 233.394531 202.003906 233.992188 192.058594 L 241.945312 192.058594 C 242.738281 192.058594 243.34375 191.765625 243.761719 191.316406 C 244.226562 190.898438 244.539062 190.28125 244.539062 189.464844 C 244.539062 182.371094 240.605469 175.609375 234.417969 172.128906 Z M 211.222656 251.996094 L 211.222656 257.324219 L 163.765625 257.324219 L 163.765625 229.503906 C 166.199219 230.960938 168.78125 232.21875 171.5 233.226562 C 184.632812 238.097656 199.394531 236.4375 211.222656 229.507812 Z M 211.222656 223.398438 C 208.375 225.410156 205.25 227.074219 201.890625 228.300781 C 188.980469 233.011719 174.726562 230.921875 163.765625 223.320312 C 162.875 222.707031 162.011719 222.054688 161.167969 221.367188 C 160.277344 220.636719 159.410156 219.867188 158.574219 219.058594 C 157.542969 218.0625 156.550781 217.011719 155.617188 215.898438 C 149.984375 209.191406 146.773438 200.75 146.195312 192.058594 L 228.789062 192.058594 C 228.082031 202.3125 223.570312 211.960938 216.410156 219.050781 C 215.582031 219.871094 214.714844 220.65625 213.816406 221.402344 C 212.980469 222.101562 212.113281 222.765625 211.222656 223.398438 Z M 231.484375 186.871094 L 135.875 186.871094 C 136.691406 182.433594 139.542969 178.472656 143.574219 176.382812 C 144.050781 176.136719 144.542969 175.914062 145.050781 175.722656 C 145.421875 175.582031 145.796875 175.46875 146.167969 175.363281 C 147.027344 175.125 147.890625 174.976562 148.761719 174.890625 C 149.878906 174.773438 151.007812 174.75 152.15625 174.75 L 221.347656 174.75 C 222.945312 174.75 224.613281 174.667969 226.222656 174.835938 C 226.648438 174.878906 227.074219 174.9375 227.488281 175.023438 C 227.941406 175.117188 228.382812 175.234375 228.816406 175.367188 C 228.824219 175.367188 228.832031 175.371094 228.839844 175.371094 C 229.417969 175.550781 229.984375 175.761719 230.53125 176.007812 C 230.832031 176.140625 231.125 176.289062 231.414062 176.441406 C 235.402344 178.546875 238.296875 182.386719 239.113281 186.871094 Z M 136.503906 117.691406 L 238.484375 117.691406 L 238.484375 129.542969 L 136.503906 129.542969 Z M 148.761719 137.960938 L 148.761719 134.835938 L 226.222656 134.835938 L 226.222656 169.683594 C 225.34375 169.601562 224.453125 169.5625 223.558594 169.5625 L 152.648438 169.5625 C 151.339844 169.5625 150.042969 169.589844 148.761719 169.699219 Z M 148.761719 137.960938 " fill-opacity="1" fill-rule="nonzero"/></g><path fill="#ffffff" d="M 206.28125 148.230469 L 219.101562 148.230469 C 222.441406 148.230469 222.449219 143.039062 219.101562 143.039062 L 206.28125 143.039062 C 202.941406 143.039062 202.9375 148.230469 206.28125 148.230469 Z M 206.28125 148.230469 " fill-opacity="1" fill-rule="nonzero"/></svg>