<svg xmlns="http://www.w3.org/2000/svg" xmlns:xlink="http://www.w3.org/1999/xlink" width="500" zoomAndPan="magnify" viewBox="0 0 375 374.999991" height="500" preserveAspectRatio="xMidYMid meet" version="1.0"><defs><clipPath id="137522b3fc"><path d="M 114 115.03125 L 262.5 115.03125 L 262.5 259.78125 L 114 259.78125 Z M 114 115.03125 " clip-rule="nonzero"/></clipPath></defs><g clip-path="url(#137522b3fc)"><path fill="#ffffff" d="M 226.464844 166.550781 C 225.984375 166.066406 225.355469 165.824219 224.71875 165.824219 C 224.089844 165.824219 223.460938 166.066406 222.980469 166.550781 L 217.734375 171.785156 L 200.246094 154.300781 L 204.527344 150.019531 C 207.367188 147.179688 208.632812 143.265625 207.984375 139.296875 C 207.347656 135.324219 204.910156 132.011719 201.308594 130.214844 L 181.675781 120.398438 L 181.8125 120.261719 L 216.890625 127.277344 C 221.210938 128.144531 225.152344 130.25 228.261719 133.371094 L 242.214844 147.3125 L 236.960938 152.558594 C 236.496094 153.023438 236.242188 153.652344 236.242188 154.308594 C 236.242188 154.957031 236.496094 155.59375 236.960938 156.058594 L 242.207031 161.304688 C 242.792969 161.882812 243.636719 162.144531 244.445312 161.980469 L 250.589844 160.753906 C 251.414062 160.578125 252.242188 160.839844 252.832031 161.417969 L 256.203125 164.800781 L 235.21875 185.785156 L 231.839844 182.414062 C 231.25 181.824219 230.996094 180.992188 231.160156 180.183594 L 232.398438 174.027344 C 232.554688 173.214844 232.300781 172.375 231.710938 171.796875 Z M 134.671875 247.851562 C 131.792969 250.738281 127.078125 250.738281 124.179688 247.859375 C 121.292969 244.953125 121.292969 240.238281 124.179688 237.359375 L 200.234375 161.292969 L 210.738281 171.796875 Z M 229.238281 215.4375 C 235.316406 214.722656 241.277344 216.78125 245.605469 221.078125 C 250.660156 226.140625 252.535156 233.464844 250.71875 240.191406 L 239.808594 229.28125 C 239.34375 228.816406 238.71875 228.558594 238.050781 228.558594 L 227.566406 228.558594 C 226.207031 228.558594 225.09375 229.667969 225.09375 231.03125 L 225.09375 241.511719 C 225.09375 242.171875 225.355469 242.808594 225.820312 243.273438 L 236.726562 254.179688 C 230.003906 255.984375 222.679688 254.121094 217.617188 249.070312 C 213.316406 244.75 211.257812 238.777344 211.972656 232.710938 C 212.4375 228.847656 211.152344 225.089844 208.46875 222.433594 L 187.78125 201.746094 L 198.285156 191.246094 L 218.960938 211.921875 C 221.625 214.625 225.394531 215.902344 229.238281 215.4375 Z M 143.367188 162.445312 C 142.847656 162.445312 142.324219 162.472656 141.804688 162.53125 C 135.714844 163.246094 129.753906 161.1875 125.4375 156.886719 C 120.382812 151.824219 118.507812 144.503906 120.324219 137.777344 L 131.234375 148.6875 C 131.699219 149.148438 132.335938 149.410156 132.992188 149.410156 L 143.476562 149.410156 C 144.835938 149.410156 145.949219 148.300781 145.949219 146.9375 L 145.949219 136.453125 C 145.949219 135.796875 145.6875 135.160156 145.222656 134.695312 L 134.316406 123.789062 C 141.039062 121.972656 148.363281 123.835938 153.417969 128.898438 C 157.726562 133.21875 159.78125 139.1875 159.078125 145.257812 C 158.605469 149.121094 159.878906 152.878906 162.574219 155.535156 L 180.789062 173.746094 L 170.285156 184.25 L 152.082031 166.046875 C 149.773438 163.710938 146.664062 162.445312 143.367188 162.445312 Z M 228.339844 185.910156 L 233.472656 191.03125 C 233.953125 191.515625 234.582031 191.757812 235.21875 191.757812 C 235.847656 191.757812 236.476562 191.515625 236.960938 191.03125 L 261.449219 166.550781 C 262.417969 165.582031 262.417969 164.019531 261.449219 163.050781 L 256.332031 157.933594 C 254.570312 156.164062 252.070312 155.410156 249.625 155.894531 L 244.773438 156.871094 L 242.207031 154.308594 L 247.460938 149.0625 C 247.925781 148.597656 248.1875 147.960938 248.1875 147.3125 C 248.1875 146.65625 247.925781 146.027344 247.460938 145.566406 L 231.769531 129.867188 C 227.953125 126.058594 223.144531 123.488281 217.867188 122.425781 L 181.484375 115.152344 C 180.671875 114.988281 179.832031 115.246094 179.25 115.828125 L 175.753906 119.324219 C 175.191406 119.886719 174.933594 120.6875 175.058594 121.46875 C 175.183594 122.261719 175.6875 122.929688 176.390625 123.285156 L 199.09375 134.636719 C 201.25 135.71875 202.71875 137.710938 203.105469 140.085938 C 203.492188 142.472656 202.738281 144.820312 201.027344 146.523438 L 194.988281 152.558594 C 194.527344 153.023438 194.265625 153.652344 194.265625 154.308594 C 194.265625 154.957031 194.527344 155.59375 194.988281 156.058594 L 196.738281 157.796875 L 184.285156 170.25 L 166.0625 152.027344 C 164.460938 150.445312 163.695312 148.191406 163.984375 145.835938 C 164.875 138.25 162.296875 130.800781 156.921875 125.402344 C 149.511719 117.992188 138.199219 116.058594 128.78125 120.589844 C 128.054688 120.9375 127.542969 121.613281 127.40625 122.40625 C 127.273438 123.199219 127.53125 124 128.09375 124.570312 L 141 137.46875 L 141 144.464844 L 134.007812 144.464844 L 121.109375 131.554688 C 120.539062 130.996094 119.738281 130.746094 118.945312 130.871094 C 118.152344 131.003906 117.476562 131.515625 117.128906 132.242188 C 112.597656 141.664062 114.527344 152.976562 121.9375 160.386719 C 127.351562 165.757812 134.789062 168.335938 142.390625 167.449219 C 144.730469 167.160156 146.980469 167.921875 148.574219 169.535156 L 166.789062 187.746094 L 120.671875 233.863281 C 115.871094 238.664062 115.863281 246.519531 120.683594 251.359375 C 123.097656 253.765625 126.265625 254.960938 129.4375 254.960938 C 132.605469 254.960938 135.773438 253.753906 138.171875 251.359375 L 184.285156 205.246094 L 204.980469 225.9375 C 206.582031 227.523438 207.347656 229.773438 207.058594 232.132812 C 206.167969 239.714844 208.738281 247.15625 214.121094 252.566406 C 218.851562 257.300781 225.191406 259.800781 231.605469 259.800781 C 235.21875 259.800781 238.871094 259.011719 242.273438 257.378906 C 242.988281 257.03125 243.5 256.351562 243.636719 255.5625 C 243.769531 254.769531 243.507812 253.96875 242.949219 253.398438 L 230.042969 240.5 L 230.042969 233.503906 L 237.035156 233.503906 L 249.933594 246.410156 C 250.503906 246.972656 251.316406 247.222656 252.097656 247.097656 C 252.890625 246.960938 253.566406 246.449219 253.914062 245.726562 C 258.445312 236.304688 256.515625 224.992188 249.101562 217.582031 C 243.703125 212.210938 236.253906 209.628906 228.648438 210.519531 C 226.3125 210.808594 224.070312 210.046875 222.464844 208.433594 L 201.78125 187.746094 L 214.234375 175.292969 L 215.972656 177.042969 C 216.941406 178.007812 218.503906 178.007812 219.472656 177.042969 L 224.71875 171.796875 L 227.289062 174.355469 L 226.3125 179.207031 C 225.820312 181.640625 226.582031 184.152344 228.339844 185.910156 " fill-opacity="1" fill-rule="nonzero"/></g></svg>