<svg xmlns="http://www.w3.org/2000/svg" xmlns:xlink="http://www.w3.org/1999/xlink" width="500" zoomAndPan="magnify" viewBox="0 0 375 374.999991" height="500" preserveAspectRatio="xMidYMid meet" version="1.0"><defs><clipPath id="14331eb0a1"><path d="M 202.398438 214.230469 L 217.820312 214.230469 L 217.820312 260.625 L 202.398438 260.625 Z M 202.398438 214.230469 " clip-rule="nonzero"/></clipPath><clipPath id="cffed47d73"><path d="M 112.5 120 L 129 120 L 129 168 L 112.5 168 Z M 112.5 120 " clip-rule="nonzero"/></clipPath><clipPath id="489eccd445"><path d="M 215.792969 157 L 262.324219 157 L 262.324219 172.421875 L 215.792969 172.421875 Z M 215.792969 157 " clip-rule="nonzero"/></clipPath><clipPath id="098ccc263c"><path d="M 215.792969 114.375 L 262.324219 114.375 L 262.324219 129.800781 L 215.792969 129.800781 Z M 215.792969 114.375 " clip-rule="nonzero"/></clipPath></defs><path fill="#ffffff" d="M 204.777344 252.167969 C 204.679688 252.167969 204.582031 252.164062 204.480469 252.148438 C 200.523438 251.648438 196.644531 250.597656 192.957031 249.039062 C 187.707031 246.816406 182.996094 243.640625 178.953125 239.597656 C 174.90625 235.554688 171.730469 230.84375 169.511719 225.59375 C 167.210938 220.152344 166.042969 214.375 166.042969 208.433594 L 166.042969 192.320312 C 166.042969 191.03125 167.089844 189.984375 168.378906 189.984375 C 169.671875 189.984375 170.71875 191.03125 170.71875 192.320312 L 170.71875 208.433594 C 170.71875 213.746094 171.761719 218.910156 173.816406 223.769531 C 175.804688 228.464844 178.644531 232.675781 182.257812 236.292969 C 185.875 239.90625 190.085938 242.746094 194.777344 244.734375 C 198.074219 246.125 201.535156 247.0625 205.070312 247.511719 C 206.351562 247.675781 207.257812 248.847656 207.09375 250.128906 C 206.941406 251.308594 205.9375 252.167969 204.777344 252.167969 " fill-opacity="1" fill-rule="evenodd"/><path fill="#ffffff" d="M 204.773438 226.148438 C 204.519531 226.148438 204.261719 226.105469 204.003906 226.019531 C 196.527344 223.414062 191.5 216.34375 191.5 208.433594 L 191.5 192.320312 C 191.5 191.03125 192.546875 189.984375 193.839844 189.984375 C 195.128906 189.984375 196.175781 191.03125 196.175781 192.320312 L 196.175781 208.433594 C 196.175781 214.359375 199.941406 219.652344 205.542969 221.605469 C 206.761719 222.027344 207.40625 223.359375 206.984375 224.578125 C 206.644531 225.546875 205.742188 226.148438 204.773438 226.148438 " fill-opacity="1" fill-rule="evenodd"/><path fill="#ffffff" d="M 193.839844 183.972656 C 192.550781 183.972656 191.503906 182.929688 191.503906 181.636719 L 191.503906 172.875 C 191.503906 167.558594 190.460938 162.398438 188.402344 157.535156 C 186.417969 152.84375 183.578125 148.628906 179.960938 145.015625 C 176.347656 141.398438 172.132812 138.558594 167.441406 136.578125 C 162.578125 134.519531 157.417969 133.476562 152.101562 133.476562 L 128.050781 133.476562 L 128.050781 154.257812 L 152.101562 154.257812 C 162.367188 154.257812 170.71875 162.609375 170.71875 172.875 L 170.71875 181.636719 C 170.71875 182.925781 169.671875 183.972656 168.378906 183.972656 C 167.089844 183.972656 166.042969 182.925781 166.042969 181.636719 L 166.042969 172.875 C 166.042969 165.1875 159.789062 158.933594 152.101562 158.933594 L 125.714844 158.933594 C 124.425781 158.933594 123.375 157.886719 123.375 156.597656 L 123.375 131.136719 C 123.375 129.84375 124.425781 128.800781 125.714844 128.800781 L 152.101562 128.800781 C 158.046875 128.800781 163.820312 129.964844 169.261719 132.269531 C 174.511719 134.488281 179.226562 137.664062 183.269531 141.710938 C 187.3125 145.753906 190.488281 150.464844 192.707031 155.714844 C 195.011719 161.15625 196.179688 166.929688 196.179688 172.875 L 196.179688 181.636719 C 196.179688 182.929688 195.132812 183.972656 193.839844 183.972656 " fill-opacity="1" fill-rule="evenodd"/><path fill="#ffffff" d="M 251.855469 161.726562 C 250.5625 161.726562 249.519531 160.679688 249.519531 159.386719 L 249.519531 129.734375 L 228.734375 129.734375 L 228.734375 159.386719 C 228.734375 160.679688 227.6875 161.726562 226.394531 161.726562 C 225.105469 161.726562 224.058594 160.679688 224.058594 159.386719 L 224.058594 127.398438 C 224.058594 126.105469 225.105469 125.058594 226.394531 125.058594 L 251.855469 125.058594 C 253.148438 125.058594 254.195312 126.105469 254.195312 127.398438 L 254.195312 159.386719 C 254.195312 160.679688 253.144531 161.726562 251.855469 161.726562 " fill-opacity="1" fill-rule="evenodd"/><path fill="#ffffff" d="M 215.457031 252.167969 C 214.296875 252.167969 213.292969 251.308594 213.140625 250.128906 C 212.976562 248.847656 213.882812 247.675781 215.164062 247.511719 C 218.699219 247.0625 222.160156 246.125 225.457031 244.734375 C 230.148438 242.746094 234.359375 239.90625 237.976562 236.292969 C 241.59375 232.675781 244.433594 228.464844 246.417969 223.769531 C 248.472656 218.910156 249.519531 213.746094 249.519531 208.433594 L 249.519531 170.070312 C 249.519531 168.78125 250.5625 167.734375 251.855469 167.734375 C 253.144531 167.734375 254.195312 168.78125 254.195312 170.070312 L 254.195312 208.433594 C 254.195312 214.375 253.023438 220.152344 250.722656 225.59375 C 248.503906 230.84375 245.328125 235.554688 241.285156 239.597656 C 237.242188 243.644531 232.527344 246.820312 227.277344 249.039062 C 223.589844 250.597656 219.710938 251.648438 215.753906 252.148438 C 215.65625 252.164062 215.554688 252.167969 215.457031 252.167969 " fill-opacity="1" fill-rule="evenodd"/><path fill="#ffffff" d="M 215.460938 226.148438 C 214.492188 226.148438 213.589844 225.546875 213.25 224.578125 C 212.828125 223.359375 213.472656 222.027344 214.691406 221.605469 C 220.292969 219.652344 224.058594 214.359375 224.058594 208.433594 L 224.058594 170.070312 C 224.058594 168.78125 225.105469 167.734375 226.394531 167.734375 C 227.6875 167.734375 228.734375 168.78125 228.734375 170.070312 L 228.734375 208.433594 C 228.734375 216.347656 223.707031 223.414062 216.230469 226.019531 C 215.972656 226.105469 215.714844 226.148438 215.460938 226.148438 " fill-opacity="1" fill-rule="evenodd"/><g clip-path="url(#14331eb0a1)"><path fill="#ffffff" d="M 210.117188 260.640625 C 205.882812 260.640625 202.4375 257.195312 202.4375 252.960938 L 202.4375 221.921875 C 202.4375 217.6875 205.882812 214.242188 210.117188 214.242188 C 214.351562 214.242188 217.796875 217.6875 217.796875 221.921875 L 217.796875 252.960938 C 217.796875 257.195312 214.351562 260.640625 210.117188 260.640625 Z M 210.117188 218.917969 C 208.460938 218.917969 207.113281 220.265625 207.113281 221.921875 L 207.113281 252.960938 C 207.113281 254.617188 208.460938 255.964844 210.117188 255.964844 C 211.773438 255.964844 213.121094 254.617188 213.121094 252.960938 L 213.121094 221.921875 C 213.121094 220.265625 211.773438 218.917969 210.117188 218.917969 " fill-opacity="1" fill-rule="evenodd"/></g><g clip-path="url(#cffed47d73)"><path fill="#ffffff" d="M 120.371094 167.066406 C 116.136719 167.066406 112.691406 163.621094 112.691406 159.386719 L 112.691406 128.347656 C 112.691406 124.113281 116.136719 120.667969 120.371094 120.667969 C 124.605469 120.667969 128.050781 124.113281 128.050781 128.347656 L 128.050781 159.386719 C 128.050781 161.4375 127.253906 163.367188 125.800781 164.816406 C 124.351562 166.269531 122.421875 167.066406 120.371094 167.066406 Z M 120.371094 125.34375 C 118.714844 125.34375 117.367188 126.691406 117.367188 128.347656 L 117.367188 159.386719 C 117.367188 161.042969 118.714844 162.390625 120.371094 162.390625 C 121.171875 162.390625 121.929688 162.078125 122.496094 161.511719 C 123.0625 160.945312 123.375 160.1875 123.375 159.386719 L 123.375 128.347656 C 123.375 126.691406 122.027344 125.34375 120.371094 125.34375 " fill-opacity="1" fill-rule="evenodd"/></g><path fill="#ffffff" d="M 196.628906 194.660156 L 165.589844 194.660156 C 161.355469 194.660156 157.910156 191.214844 157.910156 186.980469 C 157.910156 182.746094 161.355469 179.296875 165.589844 179.296875 L 196.628906 179.296875 C 200.863281 179.296875 204.308594 182.746094 204.308594 186.980469 C 204.308594 191.214844 200.863281 194.660156 196.628906 194.660156 Z M 165.589844 183.972656 C 163.933594 183.972656 162.585938 185.324219 162.585938 186.980469 C 162.585938 188.632812 163.933594 189.980469 165.589844 189.980469 L 196.628906 189.984375 C 198.285156 189.984375 199.632812 188.632812 199.632812 186.980469 C 199.632812 185.324219 198.285156 183.972656 196.628906 183.972656 L 165.589844 183.972656 " fill-opacity="1" fill-rule="evenodd"/><g clip-path="url(#489eccd445)"><path fill="#ffffff" d="M 254.644531 172.410156 L 223.605469 172.410156 C 219.371094 172.410156 215.925781 168.964844 215.925781 164.730469 C 215.925781 160.496094 219.371094 157.050781 223.605469 157.050781 L 254.644531 157.050781 C 258.878906 157.050781 262.324219 160.492188 262.324219 164.730469 C 262.324219 168.964844 258.878906 172.410156 254.644531 172.410156 Z M 223.605469 161.726562 C 221.949219 161.726562 220.601562 163.074219 220.601562 164.730469 C 220.601562 166.386719 221.949219 167.734375 223.605469 167.734375 L 254.644531 167.734375 C 256.300781 167.734375 257.648438 166.386719 257.648438 164.730469 C 257.648438 163.074219 256.300781 161.726562 254.644531 161.726562 L 223.605469 161.726562 " fill-opacity="1" fill-rule="evenodd"/></g><g clip-path="url(#098ccc263c)"><path fill="#ffffff" d="M 223.601562 129.734375 C 221.550781 129.734375 219.625 128.9375 218.175781 127.484375 C 216.722656 126.035156 215.925781 124.105469 215.925781 122.054688 C 215.925781 117.820312 219.371094 114.375 223.605469 114.375 L 254.644531 114.375 C 258.878906 114.375 262.324219 117.820312 262.324219 122.054688 C 262.324219 126.289062 258.878906 129.734375 254.644531 129.734375 L 223.605469 129.734375 C 223.605469 129.734375 223.605469 129.734375 223.601562 129.734375 Z M 223.605469 119.050781 C 221.949219 119.050781 220.601562 120.398438 220.601562 122.054688 C 220.601562 122.859375 220.914062 123.613281 221.480469 124.179688 C 222.046875 124.746094 222.800781 125.058594 223.605469 125.058594 L 254.644531 125.058594 C 256.300781 125.058594 257.648438 123.710938 257.648438 122.054688 C 257.648438 120.398438 256.300781 119.050781 254.644531 119.050781 L 223.605469 119.050781 " fill-opacity="1" fill-rule="evenodd"/></g></svg>