<svg xmlns="http://www.w3.org/2000/svg" xmlns:xlink="http://www.w3.org/1999/xlink" width="500" zoomAndPan="magnify" viewBox="0 0 375 374.999991" height="500" preserveAspectRatio="xMidYMid meet" version="1.0"><defs><clipPath id="737cea44d4"><path d="M 112.5 120.375 L 160 120.375 L 160 168 L 112.5 168 Z M 112.5 120.375 " clip-rule="nonzero"/></clipPath><clipPath id="fbccce2710"><path d="M 137 128 L 262.5 128 L 262.5 253 L 137 253 Z M 137 128 " clip-rule="nonzero"/></clipPath></defs><path fill="#ffffff" d="M 165.960938 146.894531 L 175.644531 156.578125 L 148.503906 183.71875 L 138.820312 174.039062 L 165.960938 146.894531 " fill-opacity="1" fill-rule="nonzero"/><g clip-path="url(#737cea44d4)"><path fill="#ffffff" d="M 159.96875 147.355469 L 147.0625 160.265625 L 136.226562 149.429688 L 118.015625 167.644531 L 112.714844 162.339844 L 119.167969 134.214844 L 133 120.386719 L 159.96875 147.355469 " fill-opacity="1" fill-rule="nonzero"/></g><path fill="#ffffff" d="M 175.816406 159.515625 L 179.621094 163.320312 L 172.574219 170.363281 L 168.773438 166.558594 L 175.816406 159.515625 " fill-opacity="1" fill-rule="nonzero"/><path fill="#ffffff" d="M 137.785156 191.328125 L 145.390625 183.71875 L 138.128906 176.457031 L 130.523438 184.066406 L 137.785156 191.328125 " fill-opacity="1" fill-rule="nonzero"/><path fill="#ffffff" d="M 135.621094 171.707031 L 145.390625 161.9375 L 137.871094 154.417969 L 123.175781 169.109375 L 126.933594 172.871094 L 135.621094 171.707031 " fill-opacity="1" fill-rule="nonzero"/><path fill="#ffffff" d="M 185.277344 191.328125 L 164.40625 170.925781 L 152.363281 182.972656 L 172.441406 203.050781 L 185.277344 191.328125 " fill-opacity="1" fill-rule="nonzero"/><path fill="#ffffff" d="M 200.121094 206.640625 L 187.730469 218.339844 L 219.789062 250.394531 C 223.605469 254.214844 229.398438 254.617188 232.726562 251.289062 C 236.050781 247.964844 235.652344 242.171875 231.832031 238.351562 L 200.121094 206.640625 " fill-opacity="1" fill-rule="nonzero"/><g clip-path="url(#fbccce2710)"><path fill="#ffffff" d="M 255.703125 170.910156 L 262.285156 155.839844 L 257.507812 151.0625 L 247.027344 163.136719 L 234.433594 166.179688 L 223.554688 155.300781 L 226.597656 142.707031 L 239.464844 133.023438 L 234.691406 128.246094 L 219.621094 134.824219 L 209.097656 145.351562 L 209.660156 172.378906 L 209.875 172.59375 L 140.386719 238.417969 C 137.148438 241.65625 137.148438 246.90625 140.386719 250.144531 C 143.625 253.382812 148.875 253.382812 152.113281 250.144531 L 219.160156 180.890625 L 245.179688 181.433594 L 255.703125 170.910156 " fill-opacity="1" fill-rule="nonzero"/></g></svg>