<svg version="1.2" xmlns="http://www.w3.org/2000/svg" viewBox="0 0 250 100" width="250" height="100">
	<title>Better Website</title>
	<defs>
		<clipPath clipPathUnits="userSpaceOnUse" id="cp1">
			<path d="m14 63.93h35v21.07h-35z"/>
		</clipPath>
		<clipPath clipPathUnits="userSpaceOnUse" id="cp2">
			<path d="m45 77h14.93v18.43h-14.93z"/>
		</clipPath>
		<clipPath clipPathUnits="userSpaceOnUse" id="cp3">
			<path d="m13.78 68h8.22v3h-8.22z"/>
		</clipPath>
		<clipPath clipPathUnits="userSpaceOnUse" id="cp4">
			<path d="m52 89h7.93v3h-7.93z"/>
		</clipPath>
		<clipPath clipPathUnits="userSpaceOnUse" id="cp5">
			<path d="m52 91h7.93v1h-7.93z"/>
		</clipPath>
	</defs>
	<style>
		.s0 { fill: #a6a9a8 } 
		.s1 { fill: #c5c6c4 } 
		.s2 { fill: #787978 } 
		.s3 { fill: #ffffff } 
	</style>
	<g id="Clip-Path" clip-path="url(#cp1)">
		<g>
			<path class="s0" d="m48.1 84.6v-6.7c0 0-12.9 0-19.1 0h-3.4c-2.1 0-4.4-1.1-4.4-4.3v-9.6h-6.7v9.6c0 3.1 1.1 6 3.3 8 2 1.9 4.8 3 7.8 3q0.1 0 0.1 0z"/>
		</g>
	</g>
	<g id="Clip-Path" clip-path="url(#cp2)">
		<g>
			<path class="s0" d="m52.9 88.9c0-3.2-2.4-4.3-4.5-4.3h-2.6v-6.7h2.5q0.1 0 0.1 0c3 0 5.8 1 7.8 2.9 2.2 2.1 3.4 4.9 3.4 8.1v6.5h-6.7z"/>
		</g>
	</g>
	<g id="Clip-Path" clip-path="url(#cp3)">
		<g>
			<path class="s1" d="m21.7 70.9c0.1 0 0.2-0.1 0.2-0.2v-1.7c0-0.1-0.1-0.2-0.2-0.2h-7.8c0 0-0.1 0.1-0.1 0.2v1.7c0 0.1 0.1 0.2 0.1 0.2z"/>
		</g>
	</g>
	<path class="s1" d="m34 77.3c0-0.1-0.1-0.1-0.2-0.1h-1.7c-0.1 0-0.2 0-0.2 0.1v7.7c0 0.1 0.1 0.2 0.2 0.2h1.7c0.1 0 0.2-0.1 0.2-0.2z"/>
	<path class="s2" d="m14.5 68.8v-0.6h6.7v0.6z"/>
	<path class="s2" d="m34 77.9h0.8v6.7h-0.8z"/>
	<path class="s1" d="m47.9 77.3c0-0.1-0.1-0.1-0.2-0.1h-1.7c-0.1 0-0.2 0-0.2 0.1v7.7c0 0.1 0.1 0.2 0.2 0.2h1.7c0.1 0 0.2-0.1 0.2-0.2z"/>
	<path class="s2" d="m47.9 77.9h0.8v6.7h-0.8z"/>
	<g id="Clip-Path" clip-path="url(#cp4)">
		<g>
			<path class="s1" d="m60.1 91.1c0.1 0 0.2-0.1 0.2-0.1v-1.8c0-0.1-0.1-0.1-0.2-0.1h-7.7c-0.1 0-0.2 0-0.2 0.1v1.8c0 0 0.1 0.1 0.2 0.1z"/>
		</g>
	</g>
	<g id="Clip-Path" clip-path="url(#cp5)">
		<g>
			<path class="s2" d="m59.6 91.1v0.8h-6.8v-0.8z"/>
		</g>
	</g>
	<g>
		<g>
			<g>
				<path class="s3" d="m17.9 26q3.9 0 6.2-0.3 2.3-0.2 3.6-1 1.3-0.7 1.9-2.2 0.5-1.4 0.8-3.8h2.2v17.5h-2.2q-0.4-2.4-1-3.8-0.6-1.5-1.9-2.2-1.3-0.8-3.6-1-2.2-0.2-6-0.2v12.4q0 1.9 0.5 3.2 0.5 1.3 1.7 2.1 1.2 0.8 3.2 1.2 2 0.3 4.9 0.3 3.4 0 5.8-0.5 2.3-0.5 3.9-1.7 1.5-1.2 2.5-3.2 1-2 1.6-5h2.4l-0.9 13.7h-40.7v-2.4q2-0.1 3.3-0.4 1.2-0.3 1.9-1 0.6-0.7 0.9-2 0.2-1.3 0.2-3.4v-27.7q0-2.1-0.2-3.4-0.2-1.3-0.8-2-0.6-0.8-1.7-1.1-1.1-0.2-2.9-0.4v-2.4h37.9l0.4 11.8h-2.6q-0.4-2.5-1.1-4.2-0.8-1.6-2.2-2.6-1.4-1-3.6-1.4-2.2-0.4-5.3-0.4h-6.8q-1.6 0-1.9 0.4-0.4 0.4-0.4 1.8z"/>
			</g>
		</g>
	</g>
	<g>
		<g>
			<g>
				<path class="s3" d="m89.9 51.5h-41.3v-2.4q2-0.1 3.2-0.4 1.3-0.3 2-1 0.6-0.7 0.9-2 0.2-1.3 0.2-3.4v-27.7q0-2.1-0.2-3.4-0.2-1.3-0.8-2-0.6-0.8-1.7-1.1-1.1-0.2-2.9-0.4v-2.4h20.6v2.4q-2 0.1-3.2 0.4-1.3 0.3-1.9 1.1-0.7 0.8-0.9 2.1-0.2 1.4-0.2 3.7v25.1q0 2.5 0.5 4.1 0.5 1.6 1.8 2.5 1.2 0.8 3.3 1.2 2.1 0.3 5.3 0.3 3.4 0 5.8-0.4 2.3-0.4 3.9-1.6 1.6-1.2 2.5-3.1 1-2 1.7-5.2h2.4z"/>
			</g>
		</g>
	</g>
	<g>
		<g>
			<g>
				<path class="s3" d="m136.5 51.5h-43.8v-1.4l30.1-41.6h-15.2q-4.4 0-6.6 2.2-2.3 2.2-3.1 6.9h-2.4l1-12.3h38.8v1.4l-29.8 41.4h17.1q3.3 0 5.3-0.5 2.1-0.5 3.4-1.9 1.3-1.4 2-3.7 0.7-2.3 1.3-5.8h2.7z"/>
			</g>
		</g>
	</g>
	<g>
		<g>
			<g>
				<path class="s3" d="m167.8 4.7q5.4 0 10.1 1.9 4.7 1.9 8.1 5.1 3.4 3.2 5.4 7.6 2 4.4 2 9.5 0 4.8-2 9.1-2 4.3-5.5 7.4-3.4 3.1-8.1 5-4.7 1.8-10 1.8-5.3 0-10-1.8-4.7-1.9-8.2-5-3.4-3.1-5.4-7.4-2-4.3-2-9.1 0-5.1 2-9.5 2-4.4 5.4-7.6 3.5-3.2 8.1-5.1 4.7-1.9 10.1-1.9zm0 43.5q3.5 0 6.3-1.3 2.8-1.4 4.8-3.9 2-2.5 3-6 1.1-3.6 1.1-8 0-4.7-1.1-8.5-1-3.7-3-6.4-2-2.6-4.8-4-2.8-1.5-6.3-1.5-3.5 0-6.3 1.5-2.8 1.4-4.8 4-2 2.7-3 6.4-1.1 3.8-1.1 8.5 0 4.4 1.1 8 1 3.5 3 6 2 2.5 4.8 3.9 2.8 1.3 6.3 1.3z"/>
			</g>
		</g>
	</g>
	<g>
		<g>
			<g>
				<path class="s3" d="m199.3 16.6q2.2-1.7 3.4-3.4 1.1-1.7 1.1-3.2-0.2 0.1-0.6 0.2-0.4 0-0.7 0-1.4 0-2.3-1.1-0.9-1.1-0.9-2.7 0-2 1.3-3.3 1.3-1.4 3.3-1.4 2.1 0 3.3 1.6 1.2 1.5 1.2 4.1 0 3-1.9 6-1.8 3-5.4 5.7z"/>
			</g>
		</g>
	</g>
	<g>
		<g>
			<g>
				<path class="s3" d="m213.8 36.2h2.3q0.8 5.7 4.6 9 3.7 3.2 9.1 3.2 2.3 0 4.1-0.5 1.9-0.5 3.2-1.5 1.3-1 2-2.4 0.7-1.3 0.8-3-0.1-1.4-0.5-2.5-0.5-1-1.7-2-1.3-1-3.5-2-2.1-1.1-5.6-2.4-7-2.7-10.4-6.2-3.4-3.6-3.3-8.5 0-2.8 1-5.1 1.1-2.3 3.1-4 1.9-1.7 4.6-2.6 2.8-1 6.1-1 3 0 5.7 1 2.7 1 5.3 2.9l1.1-3h1.5l0.6 12.9h-2.3q-1.5-4.9-4.5-7.5-3.1-2.6-7.1-2.6-3.7 0-6 1.8-2.3 1.9-2.3 4.7 0 1.3 0.4 2.3 0.4 1 1.6 1.9 1.1 0.9 3.1 1.8 2 0.9 5.1 2.1 4.2 1.6 7.1 3.2 3 1.7 4.9 3.6 1.9 1.9 2.8 4 0.9 2.1 0.9 4.6 0 3-1.3 5.5-1.4 2.6-3.7 4.4-2.4 1.8-5.7 2.8-3.2 1-7.2 1-3.6 0-6.5-1-2.8-1-5.9-3.2l-1.2 3.6h-1.4z"/>
			</g>
		</g>
	</g>
	<g>
		<g>
			<g>
				<path class="s3" d="m75.1 71.8q1.7 0 2.9 0.7 1.2 0.6 1.8 1.7 0.6 1.1 0.6 2.6 0 1.5-0.6 2.6-0.6 1.1-1.8 1.7-1.2 0.6-2.9 0.6h-2.9v5.8h-3.1v-15.7zm-0.4 7.4q2.5 0 2.5-2.4 0-2.5-2.5-2.5h-2.6v4.9z"/>
			</g>
		</g>
	</g>
	<g>
		<g>
			<g>
				<path class="s3" d="m86.5 71.8v13.2h7.1v2.5h-10.2v-15.7z"/>
			</g>
		</g>
	</g>
	<g>
		<g>
			<g>
				<path class="s3" d="m102.4 87.8q-3.2 0-4.8-1.6-1.6-1.5-1.6-4.5v-9.9h3.1v9.8q0 1.8 0.8 2.6 0.8 0.9 2.5 0.9 3.3 0 3.3-3.5v-9.8h3.1v9.9q0 3-1.6 4.5-1.6 1.6-4.8 1.6z"/>
			</g>
		</g>
	</g>
	<g>
		<g>
			<g>
				<path class="s3" d="m115.6 87.5h-2.8v-15.7h4l4 11.6h0.2l4-11.6h3.9v15.7h-2.9v-10.3l-0.3-0.1-3.6 10.4h-2.6l-3.6-10.4-0.3 0.1z"/>
			</g>
		</g>
	</g>
	<g>
		<g>
			<g>
				<path class="s3" d="m133 87.5v-15.7h6.7q1.5 0 2.5 0.5 1 0.5 1.5 1.3 0.5 0.8 0.5 2 0 1-0.5 1.8-0.5 0.8-1.4 1.3v0.2q1.5 0.4 2.3 1.4 0.8 1.1 0.8 2.5 0 2.3-1.4 3.5-1.4 1.2-4 1.2zm6-9.4q2.2 0 2.2-1.9 0-1-0.5-1.5-0.6-0.5-1.7-0.5h-2.9v3.9zm0.5 7q2.6 0 2.6-2.3 0-2.4-2.6-2.4h-3.5v4.7z"/>
			</g>
		</g>
	</g>
	<g>
		<g>
			<g>
				<path class="s3" d="m151.5 87.5h-3.1v-15.7h3.1z"/>
			</g>
		</g>
	</g>
	<g>
		<g>
			<g>
				<path class="s3" d="m158.6 87.5h-3v-15.7h3.5l6.4 10.2 0.2-0.1v-10.1h3v15.7h-3.2l-6.6-10.8-0.3 0.1z"/>
			</g>
		</g>
	</g>
	<g>
		<g>
			<g>
				<path class="s3" d="m178.4 87.8q-2 0-3.4-0.9-1.4-0.9-2.2-2.7-0.8-1.8-0.8-4.5 0-2.7 0.9-4.5 1-1.8 2.6-2.7 1.7-0.9 3.9-0.9 2.2 0 3.8 0.9 1.6 0.8 2.3 2.5l-2.3 1.3h-0.3q-0.5-1-1.3-1.5-0.9-0.5-2.2-0.5-2.1 0-3.1 1.3-1.1 1.3-1.1 4.1 0 2.9 1 4.1 1 1.3 3 1.3 1.7 0 2.5-0.7 0.8-0.8 0.8-2.3v-0.7h-3.7v-2.5h6.8v8.6h-3v-2.1h-0.2q-0.5 1.1-1.5 1.8-1 0.6-2.5 0.6z"/>
			</g>
		</g>
	</g>
	<g>
		<g>
			<g>
			</g>
		</g>
	</g>
	<g>
		<g>
			<g>
				<path class="s3" d="m200.9 87.8q-2.2 0-3.8-0.9-1.7-0.9-2.6-2.7-0.9-1.9-0.9-4.5 0-2.6 0.9-4.5 0.9-1.8 2.6-2.7 1.6-0.9 3.8-0.9 2.3 0 3.8 0.9 1.6 0.9 2.3 2.7l-2.3 1.4h-0.2q-0.5-1.2-1.4-1.8-0.9-0.5-2.2-0.5-2 0-3 1.3-1.1 1.3-1.1 4.1 0 2.8 1.1 4.1 1 1.3 3 1.3 3.1 0 3.8-3h0.2l2.3 1.2q-0.6 2.2-2.2 3.4-1.6 1.1-4.1 1.1z"/>
			</g>
		</g>
	</g>
	<g>
		<g>
			<g>
				<path class="s3" d="m216.3 87.8q-2.2 0-3.8-0.9-1.7-0.9-2.6-2.7-0.9-1.8-0.9-4.5 0-2.7 0.9-4.5 0.9-1.8 2.6-2.7 1.6-0.9 3.8-0.9 2.1 0 3.8 0.9 1.6 0.9 2.6 2.7 0.9 1.8 0.9 4.5 0 2.7-0.9 4.5-1 1.8-2.6 2.7-1.7 0.9-3.8 0.9zm0-2.7q2 0 3-1.3 1.1-1.3 1.1-4.1 0-2.8-1.1-4.1-1-1.3-3-1.3-2 0-3.1 1.3-1 1.3-1 4.1 0 2.8 1 4.1 1.1 1.3 3.1 1.3z"/>
			</g>
		</g>
	</g>
	<g>
		<g>
			<g>
				<path class="s3" d="m227.9 87.6q-0.6 0-1-0.2-0.5-0.2-0.7-0.6-0.2-0.4-0.2-1 0-0.5 0.2-0.9 0.2-0.4 0.7-0.6 0.4-0.3 1-0.3 0.5 0 1 0.3 0.4 0.2 0.6 0.6 0.3 0.4 0.3 0.9 0 0.8-0.5 1.3-0.6 0.5-1.4 0.5z"/>
			</g>
		</g>
	</g>
</svg>